<?xml version="1.0" encoding="utf-8"?>
<!-- Generator: Adobe Illustrator 28.1.0, SVG Export Plug-In . SVG Version: 6.00 Build 0)  -->
<svg version="1.0" id="katman_1" xmlns="http://www.w3.org/2000/svg" xmlns:xlink="http://www.w3.org/1999/xlink" x="0px" y="0px"
	 viewBox="0 0 703.65 672.77" style="enable-background:new 0 0 703.65 672.77;" xml:space="preserve">
<style type="text/css">
	.st0{fill:#001D25;}
	.st1{fill:#759EC1;}
	.st2{fill:#1C6FAB;}
</style>
<path class="st0" d="M559.89,445.8c-4.09,1.23-8.32,1.79-12.71,1.69c-13.81-0.33-27.51-2.03-41.08-5.1
	c-8.39-2.63-13.79-4.46-16.18-5.47c-5.1-2.17-12.01-5.5-20.74-10c-12.97-6.69-25.19-12.14-37.93-17.89
	c-21.47-9.68-43.1-17.36-66.34-21c-3.55-0.55-7.05-1.04-10.48-1.46c-3.69-0.45-7.23-0.69-10.61-0.7c-6.96-0.03-12.12,0.07-15.48,0.3
	c-29.38,2.05-57.23,12.07-82.58,26.65c-8.39,4.83-13.62,7.92-15.69,9.28c-7.17,4.7-14.57,9.2-22.22,13.51
	c-3.15,1.77-7.69,3.81-13.63,6.1c-10.01,1.61-20.02,2.93-30.04,3.97c-3.84,0.4-7.55,0.17-11.13-0.69c-1.28-0.44-2.63-0.77-4.06-0.98
	c-6.53-0.99-13.05-3.01-18.83-5.44c-6.06-2.55-9.5-6.52-13.56-12.37c-1.77-2.56-3.39-5.06-4.85-7.5
	c-15.72-26.37-25.98-54.8-30.79-85.27c-1.96-12.45-3.21-25.99-3.21-38.72c0.01-14.23,1.01-28.06,3.02-41.51
	c3.13-21,9.62-42.91,18.03-63.33c6.62-16.05,14.84-31.12,24.66-45.19c0.24-0.34,0.76-0.27,0.9,0.12c2.32,6.41,5.58,12.17,9.77,17.26
	c0.23,0.27,0.21,0.54-0.04,0.79c-0.47,0.47-0.88,0.99-1.21,1.54c-21.73,36.71-33.71,76.07-35.95,118.1
	c-0.49,9.09-0.34,18.36,0.44,27.82c3.53,42.93,17.5,81.93,41.91,117c1.72,2.48,4.32,4.22,7.2,4.96c12.81,3.28,27.88,2.43,40.43-1.41
	c0.37-0.11,0.39-0.28,0.08-0.49c-7.29-4.92-13.8-10.55-19.54-16.88c-34.89-38.51-54.09-91.26-42.27-143.01
	c5.56-24.3,16.24-47.16,28.8-67.38c8.59-13.83,15.53-25.15,20.82-33.98c2.76-4.6,5.27-10.14,7.54-16.62
	c2.62-7.5,3.8-16.63-0.49-23.45c-4.42-7.04-12.64-9.82-19.48-4.36c-3.85,3.07-5.52,8.14-3.92,13.08c0.34,1.07,1.51,1.63,2.56,1.22
	c2.13-0.83,4.3-1.8,6.51-2.91c1.51-0.75,2.87-0.53,4.09,0.68c6.3,6.23,5.17,15.51-2.73,19.63c-10.99,5.73-22.06,1.67-28.52-8.4
	c-4.53-7.08-5.86-15.04-3.99-23.88c0.17-0.83-0.1-1.47-0.83-1.92c-0.65-0.39-1.04-0.65-1.17-0.77
	c-9.68-8.72-15.66-20.11-14.05-33.13c1.73-14.03,8.68-23.83,20.83-29.41c1-0.46,2.06-0.74,3.19-0.85c1.57-0.15,1.77,0.29,0.58,1.33
	c-0.66,0.59-1.23,1.22-1.7,1.89c-7,9.98-8.48,23.58,0.41,32.71c5.61,5.77,10.65,4.45,17.3,2.22c6.96-2.33,13.83-2.25,20.61,0.24
	c14.07,5.18,21.67,17.69,23.22,32.13c1.48,13.87-2.93,28.52-8.21,41.84c-7.82,19.73-14.88,36.94-14.43,56.91
	c0.39,17.17,8.72,33.43,19.66,46.36c6.68,7.91,14.58,16.1,22.88,22.13c3.79,2.75,7.4,5.38,10.85,7.9c1.01,0.74,1.23,0.55,0.64-0.56
	c-6.32-11.97-10.76-24.44-13.33-37.39c-8.4-42.45-1.24-81.61,21.48-117.47c6.58-10.39,14.48-19.49,23.69-27.29
	c0.77-0.65,0.68-0.82-0.29-0.51c-3.75,1.23-7.64,1.72-11.67,1.46c-2.9-0.19-5.21-1.85-7.71-3.09c-1.07-0.53-1.59-1.41-1.56-2.66
	c0.02-0.71,0.47-1.34,1.14-1.59c1.66-0.63,3.3-1.1,4.92-1.43c31.31-6.23,62.82-12.34,94.52-18.31c0.35-0.07,0.47-0.5,0.21-0.73
	c-2.49-2.23-4.89-4.23-6.46-7.28c-6.28-12.15,0.34-22.83,9.44-31.33c0.54-0.51,0.84-1.22,0.83-1.97l-0.24-10.82
	c-0.01-0.43-0.21-0.72-0.6-0.88c-4.54-1.84-8.54-4.62-13.25-6.01c-9.82-2.9-17.31,1.4-23.44,8.61
	c-7.13,8.39-15.66,14.29-26.98,11.85c-6.48-1.4-12.23-5.31-18.46-6.78c-6.13-1.45-11.97-0.51-17.53,2.83
	c-0.79,0.47-1.02,0.28-0.69-0.58c2.86-7.57,7.42-13.5,15.94-14.59c3.37-0.43,6.78-0.21,10.25,0.66
	c24.66,6.22,24.88-19.97,42.7-26.88c10.92-4.24,23.13-2.25,31.97,5.7c0.34,0.31,0.51,0.23,0.52-0.23l0.11-12.23
	c0.01-0.66,0.41-1.25,1.02-1.49l6.57-2.59c0.69-0.27,1.03-0.04,1.02,0.7l-0.29,52.45c-0.01,0.52,0.15,0.98,0.48,1.38
	c4.57,5.6,10.8,13.12,11.55,20.56c0.62,6.07-1.31,11.45-5.79,16.14c-0.47,0.49-0.37,0.67,0.29,0.54c1.93-0.37,3.83-0.75,5.72-1.12
	c31.8-6.2,63.51-12.34,95.14-18.41c15.79-3.03,31.24-6.45,46.86-9.37c2.22-0.41,4.28-0.71,6.18-0.88c2.81-0.25,3.7,3.58,1.47,5.08
	c-16.35,10.96-32.48,22.47-44.86,37.05c-19.15,22.55-31.08,47.95-35.8,76.2c-5.04,30.17-2.26,59.59,8.35,88.27
	c7.03,18.99,16.88,35.61,29.55,49.85c3.25,3.65,6.65,7.25,10.18,10.79c0.29,0.29,0.46,0.6,0.52,0.95c0.09,0.54-0.44,0.98-0.95,0.78
	c-7.28-2.73-14.44-5.55-21.49-8.44c-21.33-8.76-44.63-16.81-69.92-24.16c-9.65-2.8-19.23-5.11-28.76-6.93
	c-0.13-0.02-0.25,0.08-0.25,0.21l-0.21,37.03c-0.01,0.39,0.13,0.71,0.42,0.97c1.56,1.41,3.21,2.62,4.66,4.17
	c3.73,4.01,6.51,8.82,8.35,14.43c0.11,0.35,0.36,0.54,0.73,0.55c5.16,0.14,10.75,0.72,16.76,1.75c0.99,0.17,1.73-0.19,2.21-1.07
	c4.79-8.77,12.34-13.45,22.66-14.04c3.08-0.18,6.21,0.32,9.38,1.5c8.58,3.19,12.68,9.14,16.87,16.79c0.18,0.32,0.54,0.49,0.9,0.43
	c2.85-0.47,5.64-0.65,8.38-0.52c0.4,0.02,0.68-0.15,0.83-0.52c0.93-2.21,1.91-4.3,2.93-6.29c5.17-10.06,18.75-14.89,28.95-10.39
	c4.77,2.11,8.76,5.42,11.97,9.93c0.28,0.4,0.81,0.53,1.24,0.32c12.3-5.89,21.89-14.05,28.78-24.5c8.91-13.52,10.74-27.8,5.49-42.85
	c-3.58-10.27-10.27-20.23-16.55-29.92c-1.72-2.64-3.33-6-4.39-8.99c-4.49-12.66-0.97-29.02,14.07-32.27
	c4.03-0.88,9.14-0.68,11.78-4.21c5.02-6.71,2.29-16.44-2.7-22.41c-0.46-0.55-0.33-0.83,0.38-0.85c0.42-0.01,0.82,0.08,1.21,0.25
	c8.25,3.55,13.6,9.11,16.05,16.69c2.63,8.13,0.63,14.16-3.31,21.1c-0.14,0.25-0.15,0.49-0.02,0.74c4.13,7.83,4.66,19.46-3.91,24.1
	c-5.81,3.14-14.82,1.63-13.65-6.91c0.42-3.1,3.23-2.58,5.44-2.89c1.12-0.16,1.78-1.34,1.32-2.38c-1.76-3.99-5.71-8.58-10.42-5.42
	c-8.62,5.77,0.41,19.95,4.44,25.56c5.46,7.6,11.26,15.23,15.99,23.36c9.65,16.6,15.52,34.83,17.61,54.7
	c2.76,26.23-4.44,53.74-18.1,75.62c-7.33,11.74-15.76,20.72-25.28,26.95c-0.41,0.27-0.38,0.47,0.09,0.6
	c10.13,2.78,20.6,2.66,31.44,0.88c4.28-0.7,9.1-2.55,11.31-6.55c2.91-5.29,5.96-10.62,9.17-16c4.39-7.37,8.48-15.65,12.28-24.85
	c6.13-14.81,10.99-30.59,14.6-47.32c8.29-38.43,5.99-79.23-5.23-115.9c-2.05-6.7-4.25-13.18-6.6-19.43
	c-9.64-25.7-23.56-49.5-41.75-71.4c-11.79-14.19-24.38-26.42-37.93-38.49c-0.48-0.43-0.46-1.18,0.03-1.59l11.69-9.86
	c0.38-0.33,0.94-0.34,1.34-0.03c45.77,35.98,78.65,86.07,93.51,142.62c7.87,29.98,10.96,61.06,7.78,91.7
	c-3.29,31.67-11.56,61.01-24.82,88.04c-4.92,10.02-10.95,20.97-18.64,29.05c-7.32,7.68-20.67,9.61-30.76,11.53
	c-0.67,0.13-0.67,0.22,0.01,0.29L559.89,445.8z M353.47,81.87c1.67,1.37,3.27,1.35,4.78-0.05c1.07-0.98,1.79-2.12,2.16-3.43
	c1.45-5.05,0.02-8.89-4.3-11.54c-0.23-0.15-0.49-0.22-0.76-0.23c-0.1,0-0.22-0.01-0.35-0.02c-0.01-0.16-0.22-0.27-0.65-0.32
	c-0.22-0.02-0.44,0.03-0.65,0.14c-3.61,1.87-5.62,4.64-6.05,8.29C347.1,79.44,349.04,81.83,353.47,81.87z M132.33,84.03
	c0.02-0.1,0.02-0.2-0.01-0.3c-0.18-0.6-0.25-0.59-0.22,0.04c0.45,7.37,3.53,13.44,9.24,18.19c1.64,1.36,3.4,2.22,5.28,2.58
	c2.15,0.41,2.22,0.17,0.23-0.73c-7.93-3.59-12.16-11.39-14.5-19.51C132.32,84.21,132.32,84.12,132.33,84.03z M412.42,100
	c1.55-0.05,1.63,0.29,0.26,1c-2.83,1.48-5.71,2.79-8.3,4.7c-24.43,18.08-40.23,45.36-46.89,74.78c-2.16,9.5-3.43,20.69-3.81,33.56
	c0,0.06-0.01,0.06-0.04,0c-0.02-0.06,0.01-0.06,0.1,0.01c0.05,0.03,0.07,0.02,0.08-0.03c4.16-30.44,15.53-58.64,33.37-83.37
	c10.33-14.31,24.71-29.15,41.75-34.03c8.52-2.44,20.1-5.45,34.73-9.02c0.17-0.04,0.23-0.14,0.2-0.31l-0.06-0.3
	c-0.01-0.04-0.04-0.06-0.08-0.05c-8.06,1.33-15.52,2.52-22.39,3.56c-6.74,1.02-13.25,2.07-19.53,3.14
	c-18.31,3.14-37.51,6.54-57.6,10.2c-7.11,1.29-14,2.52-20.67,3.67c-19.18,3.32-38.33,7.09-57.44,10.27
	c-1.34,0.22-2.68,0.86-3.68,1.73c-5.42,4.77-10.6,10.13-15.53,16.08c-16.81,20.25-27.87,43.04-33.16,68.37
	c-1.75,8.4-2.61,18.3-2.56,29.69c0,0.04-0.02,0.06-0.07,0.05c-0.03-0.01,0.03,0.04,0.19,0.16c0.03,0.03,0.05,0.02,0.06-0.03
	c1.21-10.9,3.29-21.69,6.25-32.38c7.29-26.32,20.32-49.35,39.07-69.09c4.22-4.45,8.49-7.65,14.5-8.52c1.4-0.2,2.64-0.96,3.96-1.36
	c1.8-0.53,1.99-0.19,0.57,1.04c-3.95,3.42-7.48,6.81-10.7,10.79c-17.79,21.99-29.59,46.97-35.4,74.93
	c-3.37,16.21-2.58,32.16-0.5,48.82c0.3,2.37,0.69,4.36,1.16,5.97c0.01,0.02,0.02,0.03,0.04,0.02c0.02,0,0.03-0.02,0.03-0.04
	c-0.91-8.33-1.08-15.97-0.52-22.91c0.39-4.89,0.89-9.84,1.48-14.86c0.79-6.65,2.08-13.28,3.88-19.88
	c4.34-15.89,10.27-30.78,17.8-44.67c6.8-12.53,14.79-23.36,23.98-32.48c2.8-2.78,5.91-5.39,9.33-7.82c0.99-0.71,2.03-1.19,3.11-1.45
	c5.53-1.33,11.22-2.49,17.06-3.46c1.29-0.21,1.4,0.05,0.32,0.8c-8.07,5.57-15.2,12.69-21.37,21.35
	c-16.02,22.48-26.21,48.56-28.22,75.87c-0.62,8.39-0.65,15.72-0.1,22c0.55,6.14,1.44,13.59,2.69,22.36
	c0.01,0.05,0.03,0.09,0.06,0.12c0.01,0.01,0.03,0.03,0.04,0.04c0.09,0.08,0.13,0.06,0.12-0.05c-2.12-30.82,3.04-60.23,15.49-88.22
	c5.02-11.3,11.73-22.6,20.13-33.9c5.17-6.95,11.08-13.11,17.74-18.47c3.01-2.43,5.42-3.85,7.22-4.27
	c8.17-1.91,16.13-3.53,23.86-4.88c2.11-0.37,2.28,0.05,0.51,1.26c-2.71,1.83-5.28,3.93-7.71,6.3
	c-15.21,14.81-26.51,32.87-33.89,54.2c-6.48,18.7-9.58,39.11-7.6,58.64c0.37,3.7,0.73,7.65,1.06,11.85c0.01,0.06,0.03,0.1,0.08,0.13
	c0.03,0.01,0.07,0.01,0.1,0c0.05-0.02,0.08-0.06,0.07-0.11c-0.14-39.08,11.57-78.17,34.78-109.39c6.74-9.07,16.06-19.11,25.89-24.52
	c0.99-0.54,2.08-0.96,3.28-1.27c8.3-2.1,16.94-4.01,25.93-5.72C408.75,100.25,410.58,100.05,412.42,100z M397.8,198.39
	c3.44-24.25,11.68-47.43,24.31-68.29c5.07-8.38,10.61-15.28,17.07-22.29c0.08-0.09,0.08-0.18,0-0.27l-0.01-0.01
	c-0.1-0.1-0.21-0.1-0.32-0.01c-12.79,11.17-22.55,24.62-29.26,40.33c-7.01,16.41-11.05,33.25-12.12,50.51
	c-0.01,0.1,0.04,0.16,0.15,0.17l0,0C397.73,198.54,397.79,198.5,397.8,198.39z M145.24,256.99c0.61-0.03,0.93-0.24,0.97-0.63
	c0.15-1.39,0.57-1.47,1.26-0.25c0.19,0.34,0.25,0.73,0.2,1.17c-0.27,2.25-0.69,4.52-1.26,6.79c-1.39,5.65-2.46,11.23-3.19,16.75
	c-0.37,2.84-0.56,5.78-0.57,8.81c-0.01,7.32-0.4,14.35,0.19,21.68c0.89,10.93,2.61,21.23,5.14,30.9c2.38,9.06,5.98,18.2,10.04,26.91
	c6.63,14.22,15.78,26.68,27.46,37.37c8.71,7.97,18.88,13.72,30.53,17.23c1.42,0.43,1.5,0.25,0.25-0.54
	c-13.97-8.79-26.4-19.61-37.28-32.45c-14.67-17.31-24.43-38.57-28.83-60.72c-2.41-12.11-4.32-23.66-3.66-35.4
	c0.52-9.08,1.78-17.83,3.78-26.25c1.05-4.43,3.01-10.79,5.9-19.09c3.97-11.44,7.95-22.88,11.94-34.31
	c1.68-4.81,3.17-10.48,4.48-17.01c5.79-11.95,10.7-23.87,14.74-35.74c1.28-3.77,1.14-3.82-0.43-0.17c-2.07,4.85-4.65,9.88-7.73,15.1
	c-4.39,7.44-8.95,14.97-13.66,22.58c-5.05,8.17-10.17,17.52-15.36,28.03c-13.04,26.42-20.85,54.45-17.99,83.28
	c0.86,8.62,2.52,18.74,4.98,30.37c0.01,0.05,0.05,0.07,0.1,0.06c0.03-0.01,0.05-0.02,0.08-0.03c0.03-0.02,0.05-0.05,0.05-0.08
	c-2.29-22.65-1.15-45.1,3.4-67.34C141.9,268.48,143.69,262.66,145.24,256.99z M548.72,209.88c-0.71,0.42-1.05,0.89-1,1.4
	c0.03,0.25,0.14,0.3,0.34,0.14c0.36-0.29,0.64-0.77,0.84-1.45c0.87-0.53,1.37-1.26,1.49-2.17c0.06-0.43-0.03-0.47-0.26-0.1
	L548.72,209.88z M180.88,307.44c1.97,5.56,4.95,11.27,8.94,17.12c6.82,10.01,14.45,18.56,22.9,25.66c1.79,2.29,4.58,4.9,8.35,7.85
	c15.95,12.49,33.6,20.16,52.95,23.01c2.37,0.61,4.59,0.96,6.66,1.03c0.83,0.03,0.86-0.1,0.08-0.39c-1.95-0.72-3.93-1.31-5.72-2.34
	c-8.3-4.75-13.8-7.75-16.49-9c-13.67-6.38-28.25-14.88-39.08-25.74c-6.97-6.98-13.17-14.43-18.62-22.35
	c-0.82-1.19-2.32-3.24-4.5-6.15c-13.51-21.79-23.79-44.59-27.35-70.04c-0.09-0.69-0.17-0.68-0.24,0.01
	c-1.34,13.39-0.17,26.64,3.51,39.77C174.1,292.38,176.97,299.57,180.88,307.44z M235.11,326.22c1.9,1.35,3.8,2.66,5.7,3.94
	c1.96,1.33,3.94,2.48,5.94,3.45c2.78,1.35,5.58,2.64,8.4,3.87c0.31,0.13,0.53,0.05,0.67-0.25l1.2-2.49l1.53-3.99
	c0.28-0.73-0.05-1.55-0.76-1.88c-11.33-5.38-22.28-11.83-32.86-19.34c-12.53-8.9-24.47-20.68-34.74-33.08
	c-2.86-3.46-5.51-7.31-7.94-11.55c-0.06-0.11-0.14-0.13-0.25-0.08h-0.01c-0.07,0.04-0.09,0.1-0.06,0.17
	c7.07,15.98,15.42,30.61,28.39,42.57C218.97,315.53,227.23,321.75,235.11,326.22z M170.87,340.78
	c-6.62-15.53-11.15-32.35-13.6-50.46c-0.75-5.57-0.75-11.26-1.07-16.8c0-0.04-0.02-0.06-0.06-0.06c-0.01,0-0.03,0-0.04,0
	c-0.05,0.01-0.08,0.03-0.08,0.08c-0.76,14.08-0.77,29.34,1.8,42.84c3.11,16.35,9.45,30.95,19.02,43.79
	c3.63,4.86,7.84,9.76,12.64,14.7c1.51,1.56,1.61,1.48,0.29-0.25c-3.41-4.46-6.16-8.57-8.23-12.33
	C177.6,355.17,174.09,348.33,170.87,340.78z M318.73,337.83c3.48,0.29,6.73,1.02,9.75,2.21c0.46,0.18,0.99,0.02,1.26-0.39
	c3.41-5.11,7.52-8.83,12.32-11.17c0.66-0.32,0.99-0.85,0.99-1.59l0.02-38.37c0-0.39-0.19-0.62-0.58-0.69
	c-2.45-0.42-4.88-0.67-7.29-0.76c-19.33-0.69-38.42,0.86-56.68,6.95c-11.48,3.83-20.91,9.69-28.3,17.57
	c-0.56,0.59-0.39,1.56,0.34,1.92l16.47,8.27c0.36,0.18,0.67,0.11,0.93-0.2c3.93-4.83,8.51-7.93,13.75-9.28
	c11.75-3.04,21.47,0.03,29.15,9.2c3.47,4.15,5.79,9.32,6.97,15.52C317.91,337.46,318.28,337.79,318.73,337.83z M350.37,289.17
	c-0.01-0.16-0.13-0.29-0.28-0.32l-2.97-0.6c-0.22-0.04-0.42,0.13-0.42,0.35l0.29,37.1c0,0.22,0.2,0.38,0.41,0.34l5.24-0.99
	c0.18-0.04,0.3-0.19,0.29-0.37L350.37,289.17z M199.64,362.33c8.31,8.63,17.96,15.37,28.94,20.22c5.4,2.39,10.49,4.33,15.26,5.83
	c1.75,0.55,1.88,0.3,0.38-0.76c-3.23-2.29-6.41-4.32-9.54-6.11c-22-14.14-39.33-32.33-51.98-54.58c-1.15-2.03-2.29-4.07-3.42-6.12
	c-3.18-5.8-5.44-12.13-7.74-18.25c-1.36-3.61-1.86-3.5-1.51,0.34c1.11,11.94,4.7,23.43,10.79,34.47c2.41,4.37,6.01,9.67,10.81,15.89
	C194.38,356.83,197.05,359.86,199.64,362.33z M548.13,316.74c-6.35,14.57-17.85,25.45-30.79,34.6c-2.47,1.75-5.29,3.25-8.47,4.51
	c-0.15,0.06-0.23,0.23-0.18,0.39l2.17,6.63c0.05,0.14,0.13,0.17,0.26,0.1c2.74-1.61,5.45-3.31,8.12-5.08
	c14.09-9.34,24.46-21.98,29.01-38.74c0.44-1.6,0.99-3.03,0.92-4.75c-0.01-0.29-0.07-0.3-0.16-0.02
	C548.74,315.21,548.45,316,548.13,316.74z M243.61,344.09c-7.95-4.25-16.28-9.6-24.99-16.07c-4.14-3.07-8.03-6.42-11.66-10.03
	c-0.07-0.07-0.14-0.07-0.22,0l0,0c-0.07,0.07-0.08,0.15-0.01,0.22c6.01,6.98,12.12,13.1,18.32,18.36
	c7.07,6.01,16.14,11.6,27.22,16.77c0.18,0.08,0.29,0.02,0.33-0.17c0.31-1.33,0.36-2.62,0.14-3.85c-0.05-0.27-0.19-0.48-0.44-0.61
	C249.62,347.3,246.72,345.76,243.61,344.09z M289.26,368.86c11.43,0.28,20.97-10.3,21.29-23.64c0.33-13.34-8.68-24.37-20.11-24.65
	c-11.43-0.28-20.97,10.3-21.29,23.64C268.82,357.55,277.83,368.58,289.26,368.86z M355.09,383.03
	c11.29-0.23,20.21-11.18,19.93-24.46c-0.28-13.27-9.66-23.84-20.94-23.61c-11.29,0.23-20.21,11.18-19.93,24.46
	C334.43,372.7,343.81,383.27,355.09,383.03z M531.39,367.4c-1.99,1.68-3.92,3.42-5.79,5.21c-1.92,1.83-3.87,3.51-5.84,5.02
	c-4.47,3.42-8.44,7.2-13.44,9.85c-3.59,1.9-6.12,5.03-9.76,6.87c-4.37,2.2-9.17,3.29-14.4,3.26c-0.41,0-0.79-0.12-1.14-0.35
	c-2.59-1.73-4.9-1.98-7.99-1.22c-12.45,3.02-23.77,4.62-33.98,4.81c-3.51,0.07-3.54,0.43-0.09,1.08c1.12,0.21,2.65,0.42,4.58,0.62
	c6.26,2.16,12.89,2.94,19.9,2.34c6.31-0.55,11.85-1.37,16.63-2.47c1.45-0.43,2.81-0.86,4.07-1.27c11.72-3.89,22.03-7.65,32.58-15.63
	c5.81-4.39,11.54-9.95,17.21-16.68c8.07-8.98,13.6-19.34,16.57-31.08c0.03-0.11-0.01-0.19-0.12-0.22h-0.01
	c-0.1-0.04-0.17-0.01-0.22,0.1C545.73,348.71,539.48,358.63,531.39,367.4z M488.62,385.02c9.58-1.6,15.79-12.13,13.89-23.51
	c-1.91-11.39-11.21-19.32-20.79-17.71c-9.58,1.6-15.79,12.13-13.89,23.51C469.74,378.7,479.04,386.63,488.62,385.02z M427.45,389.69
	c10.61-0.86,18.4-11.73,17.39-24.28c-1.01-12.55-10.44-22.04-21.05-21.19c-10.61,0.86-18.4,11.73-17.39,24.28
	C407.41,381.05,416.84,390.54,427.45,389.69z M317.76,354.81c-0.01,0.43,0.27,0.82,0.69,0.94l2.13,0.65
	c0.53,0.16,1.08-0.15,1.22-0.67l1.73-6.37c0.16-0.56-0.22-1.13-0.79-1.22l-3.79-0.54c-0.58-0.09-1.1,0.36-1.11,0.94L317.76,354.81z
	 M383.58,364.79c-0.46,0.57-0.7,1.15-0.73,1.74c-0.01,0.4,0.18,0.62,0.58,0.66l10.39,1c0.33,0.03,0.55-0.12,0.65-0.43
	c0.25-0.73,0.28-1.41,0.11-2.04l0.37-3.98c0.01-0.06,0.02-0.12,0.05-0.18l0.67-1.56c0.2-0.47,0.05-0.73-0.46-0.78l-11.2-1.12
	c-0.41-0.04-0.61,0.15-0.6,0.56L383.58,364.79z M452.93,371.38l4.06-0.02c0.26,0,0.46-0.21,0.46-0.46l-0.03-5.4
	c-0.01-1.47-0.62-2.66-1.37-2.66l-2.26,0.02c-0.75,0-1.36,1.19-1.35,2.66l0.03,5.4C452.47,371.18,452.68,371.38,452.93,371.38z
	 M318.08,370.46c-0.3,0.74-1.13,1.08-2.48,1.02c-0.73-0.03-1.48-0.16-2.25-0.39c-2.32-0.67-4.47-0.43-6.44,0.72
	c-0.9,0.53-0.83,0.82,0.21,0.89c3.32,0.2,6.48,0.45,9.73,1.29c2.01,0.52,4.04,0.74,6.1,0.67c0.35-0.01,0.53-0.18,0.56-0.53
	c0.07-1.06-0.03-1.9-0.31-2.52c0.1-2.81-1.16-4.51-3.77-5.11c-2.63-0.61-4.6-0.96-5.9-1.05c-0.72-0.05-1.38,0.41-1.57,1.11
	l-0.39,1.38c-0.15,0.57,0.05,0.92,0.62,1.07L318.08,370.46z M526.57,368.01c0.19-0.25,0.29-0.53,0.28-0.84
	c-0.01-0.32-0.37-0.5-0.63-0.32c-5.32,3.6-10.47,6.47-15.46,8.61c-0.9,0.39-1.58,1.14-1.87,2.06l-2.07,6.43
	c-0.33,1.05-0.07,1.23,0.78,0.52c6.34-5.25,12.13-10.17,17.38-14.75C525.55,369.23,526.08,368.66,526.57,368.01z M380.7,375.8
	c-0.11,0-0.23,0.06-0.28,0.16l-1.46,2.69c-0.1,0.19,0.02,0.42,0.23,0.44l16.85,1.92c0.21,0.02,0.38-0.19,0.32-0.39l-1.18-3.62
	c-0.04-0.11-0.14-0.2-0.26-0.2L380.7,375.8z M516.14,410.1c13.55-7.73,23.6-18.73,30.14-33c0.27-0.61,0.21-0.65-0.19-0.12
	c-2.54,3.34-5.27,6.61-8.18,9.82c-1.71,1.89-3.66,3.5-5.38,5.34c-1.25,1.33-2.61,2.6-4.07,3.79c-5.6,4.57-11.33,8.87-17.19,12.89
	c-5.84,4.01-12.07,7.27-18.69,9.8c-0.02,0.01-0.03,0.03-0.02,0.04l0.07,0.24c0.04,0.12,0.12,0.17,0.24,0.14
	C500.86,417.37,508.62,414.39,516.14,410.1z M449.46,385.75c3.49-0.71,6.95-1.03,10.38-0.96c0.74,0.01,1.05-0.34,0.92-1.07
	l-0.22-1.24c-0.18-1.03-0.79-1.54-1.83-1.53l-6.24,0.02c-0.91,0-1.75,0.5-2.19,1.3l-1.43,2.66
	C448.46,385.64,448.67,385.91,449.46,385.75z"/>
<path class="st0" d="M383.22,18.28c0-0.35,0.17-0.52,0.52-0.5c3.09,0.11,6.24,0.46,9.45,1.04c31.99,5.73,61.61,17.52,88.86,35.39
	c0.45,0.29,0.41,0.5-0.12,0.61l-24.67,5.04c-0.31,0.06-0.64,0.02-0.92-0.12c-13.41-6.83-27.34-12.59-41.78-17.27
	c-9.87-3.2-20.08-5.63-30.61-7.29c-0.41-0.07-0.62-0.31-0.63-0.73L383.22,18.28z"/>
<path class="st0" d="M200.16,91.24c-4.83-3.76-10.72-6.84-16.74-7.97c-0.63-0.12-0.7-0.39-0.23-0.81c5.5-4.93,10.8-9.17,15.91-12.72
	c12.15-8.45,24.05-15.53,35.71-21.24c0.44-0.22,0.96,0.03,1.07,0.5l3.76,16.49c0.15,0.66-0.08,1.11-0.71,1.36
	c-2.81,1.1-5.53,2.42-8.18,3.95c-8.45,4.91-17.2,10.73-26.25,17.47c-1.21,0.89-2.34,1.86-3.41,2.91
	C200.84,91.43,200.44,91.46,200.16,91.24z"/>
<path class="st1" d="M355,66.6c0.13,0.01,0.25,0.02,0.35,0.02c0.27,0.01,0.53,0.08,0.76,0.23c4.32,2.65,5.75,6.49,4.3,11.54
	c-0.37,1.31-1.09,2.45-2.16,3.43c-1.51,1.4-3.11,1.42-4.78,0.05C355.54,77.35,356.05,72.26,355,66.6z"/>
<path class="st1" d="M172.59,197.95c-1.31,6.53-2.8,12.2-4.48,17.01c-3.99,11.43-7.97,22.87-11.94,34.31
	c-2.89,8.3-4.85,14.66-5.9,19.09c-2,8.42-3.26,17.17-3.78,26.25c-0.66,11.74,1.25,23.29,3.66,35.4
	c4.4,22.15,14.16,43.41,28.83,60.72c10.88,12.84,23.31,23.66,37.28,32.45c1.25,0.79,1.17,0.97-0.25,0.54
	c-11.65-3.51-21.82-9.26-30.53-17.23c-11.68-10.69-20.83-23.15-27.46-37.37c-4.06-8.71-7.66-17.85-10.04-26.91
	c-2.53-9.67-4.25-19.97-5.14-30.9c-0.59-7.33-0.2-14.36-0.19-21.68c0.01-3.03,0.2-5.97,0.57-8.81c0.73-5.52,1.8-11.1,3.19-16.75
	c0.57-2.27,0.99-4.54,1.26-6.79c0.05-0.44-0.01-0.83-0.2-1.17c-0.69-1.22-1.11-1.14-1.26,0.25c-0.04,0.39-0.36,0.6-0.97,0.63
	c2.39-8.42,5.48-16.59,9.28-24.5C160.08,220.91,166.1,209.4,172.59,197.95z M153.98,248.09l-1.1-0.29
	c-0.14-0.04-0.29,0.04-0.33,0.19l-3.06,11.4c-1.56,5.85-2.52,10.67-2.13,10.78l0.21,0.06c0.39,0.1,1.98-4.55,3.55-10.4l3.05-11.41
	C154.21,248.28,154.13,248.13,153.98,248.09z"/>
<path class="st2" d="M548.9,209.97c-0.06-0.03-0.12-0.06-0.18-0.09l1.41-2.18c0.23-0.37,0.32-0.33,0.26,0.1
	C550.27,208.71,549.77,209.44,548.9,209.97z"/>
<path class="st1" d="M548.72,209.88c0.06,0.03,0.12,0.06,0.18,0.09c-0.2,0.68-0.48,1.16-0.84,1.45c-0.2,0.16-0.31,0.11-0.34-0.14
	C547.67,210.77,548.01,210.3,548.72,209.88z"/>
<path class="st2" d="M153.98,248.09c0.15,0.04,0.23,0.19,0.19,0.33l-3.05,11.41c-1.57,5.85-3.16,10.5-3.55,10.4l-0.21-0.06
	c-0.39-0.11,0.57-4.93,2.13-10.78l3.06-11.4c0.04-0.15,0.19-0.23,0.33-0.19L153.98,248.09z"/>
<path class="st1" d="M350.37,289.17l2.56,35.51c0.01,0.18-0.11,0.33-0.29,0.37l-5.24,0.99c-0.21,0.04-0.41-0.12-0.41-0.34
	l-0.29-37.1c0-0.22,0.2-0.39,0.42-0.35l2.97,0.6C350.24,288.88,350.36,289.01,350.37,289.17z"/>
<path class="st1" d="M234.68,381.51c-7.55-2.57-12.96-5.17-16.24-7.81c-3.84-3.09-7.72-6.12-11.64-9.11
	c-0.83-0.63-1.59-1.47-2.27-2.52c-0.22-0.33-0.53-0.53-0.93-0.6c-0.55-0.09-1.06-0.26-1.53-0.51c-0.33-0.17-0.63-0.14-0.92,0.1
	l-1.51,1.27c-2.59-2.47-5.26-5.5-8.01-9.07c-4.8-6.22-8.4-11.52-10.81-15.89c-6.09-11.04-9.68-22.53-10.79-34.47
	c-0.35-3.84,0.15-3.95,1.51-0.34c2.3,6.12,4.56,12.45,7.74,18.25c1.13,2.05,2.27,4.09,3.42,6.12
	C195.35,349.18,212.68,367.37,234.68,381.51z"/>
<path class="st1" d="M180.88,307.44c4.2,4.2,7.31,6.79,9.34,7.77c0.91,0.44,2.96,0.75,6.13,0.93c2.18,2.91,3.68,4.96,4.5,6.15
	c5.45,7.92,11.65,15.37,18.62,22.35c10.83,10.86,25.41,19.36,39.08,25.74c2.69,1.25,8.19,4.25,16.49,9
	c1.79,1.03,3.77,1.62,5.72,2.34c0.78,0.29,0.75,0.42-0.08,0.39c-2.07-0.07-4.29-0.42-6.66-1.03c-3.26-2.39-5.62-3.75-7.07-4.06
	c-11.21-2.44-21.43-6.78-30.65-13.02c-1.96-1.33-3.98-2.62-6.06-3.87c-2.01-1.21-4.04-2.34-6.1-3.41c-3.71-1.93-6.97-4.15-9.78-6.66
	c-0.26-0.23-0.56-0.31-0.89-0.23c-0.27,0.06-0.52,0.19-0.75,0.39c-8.45-7.1-16.08-15.65-22.9-25.66
	C185.83,318.71,182.85,313,180.88,307.44z"/>
<path class="st1" d="M235.11,326.22c1.21,0.01,2,0.18,2.36,0.53c0.67,0.65,1.48,1.04,2.43,1.18c0.32,0.05,0.62,0.17,0.9,0.34
	c4.75,3.01,9.7,5.16,14.85,6.45c0.31,0.07,0.61,0.03,0.88-0.13c0.36-0.21,0.52-0.16,0.49,0.15l-1.2,2.49
	c-0.14,0.3-0.36,0.38-0.67,0.25c-2.82-1.23-5.62-2.52-8.4-3.87c-2-0.97-3.98-2.12-5.94-3.45
	C238.91,328.88,237.01,327.57,235.11,326.22z"/>
<path class="st0" d="M289.68,361.73c-8.28-0.41-14.61-8.48-14.15-18.03c0.47-9.56,7.56-16.97,15.84-16.57
	c8.28,0.41,14.61,8.48,14.15,18.03C305.05,354.72,297.96,362.13,289.68,361.73z M291.19,351.63c3.43-0.23,5.98-3.82,5.7-8.01
	c-0.29-4.19-3.3-7.4-6.73-7.16c-3.43,0.23-5.98,3.82-5.7,8.01C284.74,348.66,287.75,351.87,291.19,351.63z"/>
<path class="st0" d="M355.16,375.57c-8.19,0.03-14.86-7.59-14.89-17.01c-0.03-9.42,6.58-17.08,14.77-17.11
	c8.19-0.03,14.86,7.59,14.89,17.01C369.96,367.88,363.35,375.54,355.16,375.57z M356.1,365.72c3.42-0.44,5.77-4.13,5.24-8.24
	c-0.53-4.12-3.73-7.1-7.14-6.66c-3.42,0.44-5.77,4.13-5.24,8.24C349.49,363.18,352.69,366.16,356.1,365.72z"/>
<path class="st0" d="M487.03,378.86c-6.97,0.62-13.22-5.58-13.96-13.86c-0.74-8.28,4.31-15.5,11.28-16.12
	c6.97-0.62,13.22,5.58,13.96,13.86C499.05,371.02,494,378.24,487.03,378.86z M487.2,369.81c2.76-0.65,4.33-3.99,3.51-7.45
	c-0.82-3.46-3.71-5.74-6.47-5.09c-2.76,0.65-4.33,3.99-3.51,7.45C481.55,368.18,484.44,370.46,487.2,369.81z"/>
<path class="st2" d="M274.02,381.08c-19.35-2.85-37-10.52-52.95-23.01c-3.77-2.95-6.56-5.56-8.35-7.85c0.23-0.2,0.48-0.33,0.75-0.39
	c0.33-0.08,0.63,0,0.89,0.23c2.81,2.51,6.07,4.73,9.78,6.66c2.06,1.07,4.09,2.2,6.1,3.41c2.08,1.25,4.1,2.54,6.06,3.87
	c9.22,6.24,19.44,10.58,30.65,13.02C268.4,377.33,270.76,378.69,274.02,381.08z"/>
<path class="st0" d="M426.74,382.56c-7.66,0.23-14.08-6.84-14.34-15.78c-0.27-8.94,5.72-16.38,13.38-16.6
	c7.66-0.23,14.08,6.84,14.34,15.78C440.39,374.9,434.4,382.34,426.74,382.56z M427.11,373.19c3.26-0.35,5.55-3.77,5.14-7.63
	c-0.42-3.86-3.4-6.7-6.65-6.35c-3.26,0.35-5.55,3.77-5.14,7.63C420.87,370.7,423.85,373.54,427.11,373.19z"/>
<path class="st2" d="M234.68,381.51c3.13,1.79,6.31,3.82,9.54,6.11c1.5,1.06,1.37,1.31-0.38,0.76c-4.77-1.5-9.86-3.44-15.26-5.83
	c-10.98-4.85-20.63-11.59-28.94-20.22l1.51-1.27c0.29-0.24,0.59-0.27,0.92-0.1c0.47,0.25,0.98,0.42,1.53,0.51
	c0.4,0.07,0.71,0.27,0.93,0.6c0.68,1.05,1.44,1.89,2.27,2.52c3.92,2.99,7.8,6.02,11.64,9.11
	C221.72,376.34,227.13,378.94,234.68,381.51z"/>
<path class="st2" d="M383.58,364.79l11,0.93c0.17,0.63,0.14,1.31-0.11,2.04c-0.1,0.31-0.32,0.46-0.65,0.43l-10.39-1
	c-0.4-0.04-0.59-0.26-0.58-0.66C382.88,365.94,383.12,365.36,383.58,364.79z"/>
<path class="st1" d="M526.57,368.01c-0.49,0.65-1.02,1.22-1.59,1.71c-5.25,4.58-11.04,9.5-17.38,14.75
	c-0.85,0.71-1.11,0.53-0.78-0.52l2.07-6.43c0.29-0.92,0.97-1.67,1.87-2.06c4.99-2.14,10.14-5.01,15.46-8.61
	c0.26-0.18,0.62,0,0.63,0.32C526.86,367.48,526.76,367.76,526.57,368.01z"/>
<path class="st1" d="M531.39,367.4l-0.78,3.32c-0.08,0.32,0.03,0.42,0.34,0.31l0.89-0.32c0.19-0.07,0.31-0.2,0.37-0.39
	c0.3-0.93,0.87-1.42,1.72-1.48c-5.67,6.73-11.4,12.29-17.21,16.68c-10.55,7.98-20.86,11.74-32.58,15.63
	c-1.26,0.41-2.62,0.84-4.07,1.27c-3.29-1.22-7.5-1.38-12.64-0.48c-4.41,0.77-12.37,0.97-23.89,0.61c-1.93-0.2-3.46-0.41-4.58-0.62
	c-3.45-0.65-3.42-1.01,0.09-1.08c10.21-0.19,21.53-1.79,33.98-4.81c3.09-0.76,5.4-0.51,7.99,1.22c0.35,0.23,0.73,0.35,1.14,0.35
	c5.23,0.03,10.03-1.06,14.4-3.26c3.64-1.84,6.17-4.97,9.76-6.87c5-2.65,8.97-6.43,13.44-9.85c1.97-1.51,3.92-3.19,5.84-5.02
	C527.47,370.82,529.4,369.08,531.39,367.4z"/>
<path class="st2" d="M153.05,444.99c3.58,0.86,7.29,1.09,11.13,0.69c10.02-1.04,20.03-2.36,30.04-3.97
	c17.59-3.76,34.67-9.27,51.25-16.53c9.91-4.34,20.21-8.59,30.92-12.74c17.59-6.82,37.53-12.52,56.52-13.42
	c14.93-0.71,28.47,0.4,40.62,3.31c21.28,5.1,39.69,11.79,60.85,19.96c23.3,8.99,47.21,15.69,71.72,20.1
	c13.57,3.07,27.27,4.77,41.08,5.1c4.39,0.1,8.62-0.46,12.71-1.69c2.17-0.36,6.27-0.54,12.29-0.54c8.83,0,18.74-0.95,29.73-2.85
	c6.91-1.2,13.38-2.62,19.41-4.27c19.23-5.27,36.47-13.97,51.73-26.1c11.9-9.47,21.93-21.58,28-35.8c0.67-1.56,0.83-3.47,1.39-5.1
	c0.79-2.31,1.19-2.25,1.21,0.2c0.2,21.94-6.75,41.64-20.84,59.09c-11.02,13.66-24.73,25.52-40.27,33.11
	c-1.69,0.83-1.62,1.07,0.23,0.72c9.51-1.79,18.57-4.25,27.17-7.38c3.27-1.19,6.12-3.3,8.86-5.47c0.76-0.61,0.89-0.49,0.38,0.34
	c-3.45,5.67-9.53,11.22-14.95,15.5c-12.34,9.73-26.45,14.97-42.34,15.7l6.96-6.59c0.75-0.72,0.48-1.98-0.51-2.31
	c-2.41-0.83-4.76-0.75-7.03,0.23c-18.07,7.79-36.24,13.53-54.51,17.23c-14.07,2.85-29.23,4.25-45.47,4.2
	c-15.81-0.06-27.68-0.33-35.61-0.8c-12.71-0.77-26.73-3.07-42.07-6.9c-16.57-4.13-27.75-7-33.55-8.61
	c-32.18-8.88-66.44-12.87-98.42-6.56c-10.06,1.98-21.27,4.69-33.63,8.12c-15.19,4.22-31.95,8.16-46.63,10.84
	c-8.75,1.59-17.13,2.55-25.14,2.86c-22.63,0.89-46.98,1.25-68.47-2.97c-5.65-1.11-11.98-2.69-18.98-4.73
	c-13.1-3.8-25.05-8.74-37.43-13.71c-2.41-0.96-8.46-2.46-7.97,2.36c0.05,0.41,0.23,0.75,0.55,1.02l8.31,6.85
	c-7.28-0.49-12.73-1.25-16.36-2.3c-17.43-5.04-31.45-14.95-42.05-29.73c-0.07-0.09-0.06-0.22,0.03-0.3c0.08-0.09,0.21-0.09,0.3-0.02
	c3.87,3.07,7.72,5.2,11.55,6.41c6.8,2.15,13.93,4.21,21.38,6.2c1,0.27,1.98,0.38,2.95,0.35c1.53-0.05,1.57-0.31,0.12-0.8
	c-1.39-0.47-2.64-0.77-3.9-1.59c-7.66-4.99-15.44-11.2-23.33-18.63c-16.82-15.83-29.81-35.48-32.21-58.22
	C0.26,379.94,0,374.97,0,369.96c0-0.22,0.22-0.36,0.42-0.28c0.24,0.1,0.39,0.28,0.45,0.53c1.13,5.01,3.17,9.82,6.14,14.43
	c12.76,19.88,31.9,34.99,53.56,44.65c12.72,5.67,26.24,9.78,40.55,12.32C118.31,444.65,135.62,445.78,153.05,444.99z M340.39,431.5
	c0.05,0.11,0.04,0.2-0.03,0.28c-0.13,0.14-0.31,0.22-0.52,0.23c-11.77,0.63-22.56,4.41-32.37,11.35c-1.83,1.29-5.09,3.92-9.8,7.89
	c-0.07,0.06-0.08,0.13-0.02,0.21l0.15,0.21c0.03,0.05,0.07,0.05,0.12,0.01c1.75-1.29,3.18-2.16,4.28-2.59
	c24.91-9.75,50.1-10.46,75.55-2.15c6.23,2.03,12.34,4.39,18.33,7.06c2.59,1.15,4.83,2.78,7.11,4.44c0.07,0.06,0.14,0.05,0.21-0.02
	l0.01-0.01c0.08-0.09,0.08-0.17-0.01-0.26c-3.86-4.04-7.9-6.73-12.98-10.02c-9.46-6.12-19.15-10.96-29.07-14.51
	c-3.44-1.23-5.14-2.98-7.87-5.04c-8.87-6.66-20.39-11.64-31.67-11.62c-10.62,0.02-20.6,1.8-29.95,5.34
	c-3.52,1.33-7.3,2.96-11.34,4.89c-3.22,1.54-3.09,1.93,0.4,1.18c13.81-2.97,27.57-3.48,41.28-1.51c3.34,0.48,9.32,1.96,17.95,4.43
	C340.26,431.32,340.34,431.39,340.39,431.5z M646.21,446.6c-4.41,2.11-9.09,3.99-14.06,5.64c-13.99,4.65-27.98,8.17-42.26,9.47
	c-4.81,0.44-9.56,0.85-14.26,1.22c-13.06,1.04-26.96,0.96-41.69-0.23c-33.58-2.71-66.29-10.75-97.84-21.78
	c-14.39-5.03-26.64-9.05-36.76-12.04c-10.5-3.11-19.4-5.26-26.7-6.45c-5.23-0.85-10.71-1.84-16.43-2.97
	c-0.04-0.01-0.06,0.01-0.07,0.05l-0.08,0.29c-0.03,0.11,0.03,0.23,0.14,0.26c5.51,1.97,11.16,4.2,16.95,6.71
	c14.33,6.21,28.79,11.7,43.76,17.7c9.75,3.9,22.07,8.29,36.98,13.18c13.27,4.35,26.73,7.87,40.39,10.56
	c4.59,0.9,9.01,1.59,13.24,2.07c5.99,0.69,10.63,1.16,13.92,1.41c10.61,0.83,22,0.99,34.17,0.47c12.32-0.53,24.84-2.26,36.31-5.24
	c14.93-3.89,30.51-9.27,46.74-16.15c1.97-0.83,4.58-2.21,7.83-4.13c0.05-0.03,0.07-0.06,0.07-0.11c0-0.03,0-0.05,0-0.07
	c0-0.08-0.03-0.09-0.09-0.04C646.39,446.5,646.3,446.56,646.21,446.6z M59.68,446.31c-2.09-0.95-2.11-0.9-0.08,0.16
	c2.48,1.29,4.84,2.44,7.07,3.47c10.31,4.74,22.59,9.26,36.84,13.56c9.37,2.82,18.26,4.87,26.69,6.14
	c17.45,2.63,36.06,3.03,55.84,1.18c17.53-1.64,34.56-6.17,51.52-11.89c16.81-5.67,33.28-11.86,49.42-18.58
	c3.57-1.49,8.23-3.07,13.97-4.72c0.05-0.01,0.07-0.07,0.06-0.17l-0.01-0.29c-0.01-0.13-0.07-0.18-0.2-0.17
	c-5.71,0.63-11.52,1.26-17.43,1.91c-15.07,1.64-29.9,5.13-44.23,9.75c-14.81,4.77-30.43,9.31-45.83,11.99
	c-20.82,3.63-42.95,5.44-64.13,3.91c-4.45-0.32-8.53-0.66-12.26-1.01C96.9,459.66,77.82,454.58,59.68,446.31z M606.7,473.71
	c-16.06,4.47-33.88,7.89-53.45,10.28c-23.58,2.87-46.7,2.81-69.37-0.18c-13.27-1.75-24.24-3.75-32.93-5.98
	c-15.17-3.89-29.85-7.73-45.12-12.21c-9.4-2.77-18.46-5-27.17-6.7c-7.85-1.53-15.52-2.34-23.02-2.43c-1.22-0.01-1.23,0.07-0.02,0.25
	c4.97,0.73,9.63,1.6,13.99,2.59c10.9,2.49,23.96,6.04,39.18,10.63c12.49,3.77,27.18,7.57,44.09,11.38
	c14.39,3.25,30.11,5.59,47.17,7.04c6.52,0.55,13.46,0.64,20.82,0.25c11.06-0.57,21.97-1.66,32.72-3.26
	c15.83-2.35,31.31-5.47,46.44-9.36c2.33-0.6,4.56-1.35,6.69-2.24c0.02-0.01,0.02-0.02,0.02-0.04
	C606.73,473.71,606.72,473.71,606.7,473.71z M96.66,473.15c10.1,3.67,20.58,6.52,31.44,8.56c10.17,1.91,21.36,3.63,32.24,4.65
	c5.19,0.49,10.47,1,15.83,1.52c2.68,0.25,8.68,0.28,18.01,0.08c8.43-0.18,17.62-0.99,25.89-2.5c9.72-1.77,19.76-3.38,29.44-5.87
	c9.97-2.56,19.69-5.3,29.16-8.23c12.89-3.98,25.58-7.32,38.5-10.68c5.46-1.42,10.47-2.36,15.03-2.81c2.34-0.23,4.73-0.43,7.17-0.58
	c0.08-0.01,0.12-0.05,0.11-0.13l-0.01-0.25c-0.01-0.14-0.12-0.24-0.26-0.25c-15.69-0.24-32.01,2.75-47.03,7.26
	c-13.35,4.01-25.94,7.66-37.76,10.96c-20.53,5.72-41.82,9.64-63.11,10.5c-17.91,0.73-36.52-0.44-55.81-3.51
	c-15.68-2.49-30.79-6.23-45.34-11.24c-0.11-0.04-0.22-0.06-0.33-0.05c-0.06,0-0.07,0.08-0.02,0.1
	C92.13,471.51,94.41,472.33,96.66,473.15z"/>
<path class="st2" d="M318.08,370.46l5.12,1.15c0.28,0.62,0.38,1.46,0.31,2.52c-0.03,0.35-0.21,0.52-0.56,0.53
	c-2.06,0.07-4.09-0.15-6.1-0.67c-3.25-0.84-6.41-1.09-9.73-1.29c-1.04-0.07-1.11-0.36-0.21-0.89c1.97-1.15,4.12-1.39,6.44-0.72
	c0.77,0.23,1.52,0.36,2.25,0.39C316.95,371.54,317.78,371.2,318.08,370.46z"/>
<path class="st2" d="M655.3,371.65c7.78-3.26,14.29,1.17,15.33,9.32c0.92,7.24-2.62,14.11-6.86,19.86
	c-6.11,8.31-13.85,14.38-23.24,18.19c-1.59,0.65-1.81,0.34-0.66-0.94c0.41-0.45,0.72-0.91,0.94-1.38
	c3.41-7.15,5.35-13.66,5.82-19.55c0.29-3.59,0.52-7.32,0.69-11.19C647.59,380.04,649.84,373.94,655.3,371.65z"/>
<path class="st2" d="M59.41,384.69c0.28,11.69,0.83,23.13,6.8,33.33c0.61,1.05,0.37,1.31-0.72,0.78
	c-11.36-5.53-21.68-13.01-27.39-24.21c-3.12-6.12-4.16-14.6,0.47-20.07c2.47-2.92,5.81-4.17,10.02-3.75
	C55.4,371.44,59.26,378.35,59.41,384.69z"/>
<path class="st1" d="M516.14,410.1c-7.52,4.29-15.28,7.27-23.27,8.94c-0.12,0.03-0.2-0.02-0.24-0.14l-0.07-0.24
	c-0.01-0.01,0-0.03,0.02-0.04c6.62-2.53,12.85-5.79,18.69-9.8c5.86-4.02,11.59-8.32,17.19-12.89c1.46-1.19,2.82-2.46,4.07-3.79
	c1.72-1.84,3.67-3.45,5.38-5.34c2.91-3.21,5.64-6.48,8.18-9.82c0.4-0.53,0.46-0.49,0.19,0.12
	C539.74,391.37,529.69,402.37,516.14,410.1z"/>
<path class="st2" d="M480.07,402.42c-4.78,1.1-10.32,1.92-16.63,2.47c-7.01,0.6-13.64-0.18-19.9-2.34
	c11.52,0.36,19.48,0.16,23.89-0.61C472.57,401.04,476.78,401.2,480.07,402.42z"/>
<path class="st0" d="M621.89,482.95c-10.75,7.69-23.07,13.85-36.96,18.47c-20.77,6.9-42.34,10.77-64.72,11.62
	c-20.17,0.75-39.25-0.28-57.22-3.1c-9.49-1.49-20.76-4-33.81-7.53c-14.87-4.03-29.21-8.01-43.01-11.95
	c-11.94-3.41-23.97-5.8-36.08-7.17c-26.97-3.04-52.54,2.66-77.56,10.95c-14.73,4.87-26.62,8.56-35.66,11.05
	c-11.62,3.2-24.59,5.4-38.91,6.6c-6.32,0.53-13.01,0.57-20.08,0.14c-14.37-0.89-26.46-2.39-36.25-4.51
	c-7.78-1.68-16.34-4.11-25.69-7.3c-12.13-4.14-23.35-9.72-33.65-16.74l-8.31-6.85c-0.32-0.27-0.5-0.61-0.55-1.02
	c-0.49-4.82,5.56-3.32,7.97-2.36c12.38,4.97,24.33,9.91,37.43,13.71c7,2.04,13.33,3.62,18.98,4.73c21.49,4.22,45.84,3.86,68.47,2.97
	c8.01-0.31,16.39-1.27,25.14-2.86c14.68-2.68,31.44-6.62,46.63-10.84c12.36-3.43,23.57-6.14,33.63-8.12
	c31.98-6.31,66.24-2.32,98.42,6.56c5.8,1.61,16.98,4.48,33.55,8.61c15.34,3.83,29.36,6.13,42.07,6.9c7.93,0.47,19.8,0.74,35.61,0.8
	c16.24,0.05,31.4-1.35,45.47-4.2c18.27-3.7,36.44-9.44,54.51-17.23c2.27-0.98,4.62-1.06,7.03-0.23c0.99,0.33,1.26,1.59,0.51,2.31
	L621.89,482.95z"/>
<path class="st0" d="M636.98,637.94l0.01-15.53c0-0.39-0.2-0.59-0.59-0.59l-21.93,0.07c-0.34,0-0.63-0.24-0.71-0.57
	c-2.06-8.95-4.71-17.39-7.95-25.31c-0.39-0.94-0.93-1.78-1.64-2.53c-0.26-0.28-0.06-0.74,0.32-0.74l60.16-0.04
	c0.66,0,0.99,0.33,0.98,0.98l-0.23,65.55c0,0.33-0.18,0.65-0.47,0.82c-16.33,9.59-33.2,13.75-50.62,12.5
	c-21.75-1.56-41.68-11.49-53.35-30.12c-10.22-16.31-13.06-34.53-8.53-54.64c4.44-19.75,17.44-36.8,35.87-45.48
	c15.31-7.22,31.65-8.97,49.02-5.25c8.47,1.82,16.52,5.35,24.16,10.59c0.25,0.17,0.31,0.4,0.2,0.68l-11.73,28.32
	c-0.12,0.31-0.31,0.36-0.58,0.16c-11.45-8.48-25.36-12.55-39.25-8.52c-13.28,3.84-21.76,12.67-25.45,26.48
	c-4.76,17.81,4.24,36.17,20.84,43.58c9.78,4.36,20.61,3.34,30.86,0.4C636.78,638.63,636.98,638.36,636.98,637.94z"/>
<path class="st0" d="M96.38,636.15c0.12-1.13,0.43-2.21,0.82-3.26c10.67-28.2,21.09-55.55,31.26-82.06
	c0.98-2.55,2.15-5.46-1.19-7.13c-0.26-0.13-0.45-0.33-0.58-0.6c-0.05-0.11-0.08-0.23-0.09-0.35c-0.04-0.43,0.15-0.63,0.58-0.62
	c12.84,0.23,25.55,0.18,38.12-0.15c1.67-0.04,1.82,0.43,0.47,1.4c-1.84,1.31-3.24,3.07-4.2,5.26c-2.59,5.88-5.31,12.4-8.17,19.55
	c-13.27,33.19-26.74,66.75-40.43,100.68c-0.14,0.34-0.39,0.51-0.75,0.51l-33.05,0.2c-0.53,0-0.9-0.25-1.1-0.74
	c-16.13-40.27-31.59-78.99-46.36-116.14c-1.43-3.58-3.22-7.36-6.67-9.39c-0.41-0.24-0.62-0.59-0.63-1.04
	c-0.01-0.32,0.29-0.57,0.6-0.51c1.98,0.36,4.07,0.62,6.08,0.6c11.06-0.11,22.47-0.18,34.24-0.22c0.76,0,0.82,0.21,0.19,0.64
	c-1.13,0.77-1.96,1.73-2.49,2.9c-0.15,0.33-0.18,0.7-0.1,1.06c0.46,1.94,0.83,4.11,1.54,5.95c10.82,27.87,21.31,55.7,31.47,83.51
	C96.17,636.81,96.31,636.8,96.38,636.15z"/>
<path class="st0" d="M267.95,591.81c-0.01,0.54,0.15,0.6,0.47,0.17l34.13-45.42c0.55-0.73,0.5-1.42-0.16-2.07
	c-0.31-0.31-0.68-0.53-1.11-0.67c-0.19-0.07-0.35-0.19-0.47-0.35c-0.27-0.37-0.32-0.66-0.17-0.86c0.15-0.19,0.34-0.28,0.57-0.28
	c11.59,0.01,22.93-0.06,34-0.19c1.9-0.03,3.92-0.11,6.06-0.25c1.61-0.11,1.77,0.31,0.48,1.28c-1.88,1.4-3.5,2.86-4.96,4.68
	c-13.62,16.91-27.02,33.51-40.21,49.81c-0.25,0.31-0.27,0.75-0.03,1.07c16.57,23.13,32.65,45.63,48.22,67.5
	c0.76,1.07,1.55,2.07,2.37,2.99c0.41,0.47,0.31,0.7-0.32,0.69c-2.15-0.04-4.25-0.44-6.42-0.45c-10.81-0.02-21.62-0.01-32.42,0.03
	c-0.73,0.01-1.42,0.08-2.08,0.23c-1.22,0.27-1.49-0.11-0.82-1.16c0.88-1.38,1.58-2.89,0.9-4.55c-0.62-1.53-1.37-2.92-2.24-4.18
	c-8.26-11.85-16.61-23.87-25.05-36.05c-0.08-0.12-0.24-0.13-0.34-0.02c-3.41,3.77-6.53,7.95-9.35,12.56
	c-0.75,1.23-1.13,2.58-1.14,4.04c-0.01,5.44,0.14,10.8,0.44,16.09c0.28,5.02,2.01,9.38,5.19,13.07c0.12,0.14,0.02,0.37-0.17,0.36
	c-13.34-0.61-26.41-0.62-39.2-0.02c-0.84,0.04-0.96-0.24-0.36-0.83c3.66-3.58,4.03-10.16,4.01-15.33
	c-0.09-29.83-0.12-62.03-0.08-96.6c0.01-4.98,0.03-10.36-4.11-13.82c-1.49-1.24-1.27-1.72,0.65-1.43c1.3,0.2,2.47,0.3,3.51,0.31
	c10.21,0.07,20.41,0.1,30.61,0.1c1.46,0,2.98-0.3,4.45-0.42c1.3-0.11,1.41,0.2,0.32,0.93c-5.21,3.45-5.26,10.31-5.19,15.86
	C268.06,570.02,268.06,581.08,267.95,591.81z"/>
<path class="st0" d="M393.58,652.29c0.05,6.69,1.06,11.83,5.31,17.15c0.15,0.19,0.01,0.47-0.23,0.46
	c-12.09-0.53-25.07-0.53-38.94,0.02c-0.81,0.03-0.94-0.24-0.37-0.82c3.43-3.52,3.88-8.64,3.87-13.63
	c-0.05-33.83-0.06-67.71-0.04-101.63c0-4.53-1.62-8.31-4.85-11.34c-0.67-0.63-0.55-0.88,0.36-0.73c1.27,0.21,2.48,0.32,3.62,0.35
	c10.97,0.21,23.24,0.18,36.79-0.09c0.77-0.01,0.84,0.2,0.2,0.65c-3.67,2.55-5.52,6.35-5.57,11.38
	C393.4,586.82,393.35,619.56,393.58,652.29z"/>
<path class="st0" d="M502.46,615.71c0.24,0.36,0.36,0.32,0.37-0.11c0.16-18.13,0.18-36.93,0.07-56.4
	c-0.03-5.87-0.34-12.6-5.44-16.13c-0.25-0.18-0.38-0.43-0.39-0.74c-0.01-0.39,0.34-0.68,0.72-0.61c1.93,0.37,3.8,0.56,5.61,0.56
	c8.39-0.03,17.07-0.05,26.04-0.06c2.01,0,3.96-0.29,5.94-0.35c1.22-0.04,1.33,0.29,0.34,1c-2.46,1.75-3.94,4.02-4.43,6.83
	c-0.61,3.45-0.92,7.03-0.91,10.76c0.03,30.85,0.07,62.35,0.13,94.5c0.01,5.31,1.51,10.11,4.49,14.39c0.1,0.14,0,0.33-0.17,0.33
	l-30.48-0.21c-0.59,0-1.15-0.29-1.49-0.78l-48.94-71.42c-0.22-0.31-0.33-0.28-0.33,0.11c-0.01,18.63,0.03,37.49,0.12,56.59
	c0.03,5.83,1.85,11.02,5.44,15.59c0.1,0.13,0,0.32-0.16,0.31c-12.46-0.58-24.74-0.58-36.85-0.01c-0.98,0.05-1.12-0.27-0.41-0.95
	c3.36-3.21,3.98-9.24,4-13.55c0.2-32.56,0.23-65.24,0.09-98.04c-0.03-5.23,0.26-10.36-4.25-14.11c-1.38-1.15-1.19-1.57,0.58-1.28
	c1.23,0.21,2.42,0.31,3.56,0.32c9.13,0.04,18.16,0,27.09-0.12c0.52-0.01,1.01,0.25,1.3,0.68L502.46,615.71z"/>
<path class="st0" d="M214.69,542.78c-3.85,2.89-5.31,7.2-5.35,12.18c-0.3,31.94-0.31,65.27-0.03,100c0.05,5.41,1.73,10.21,5.05,14.4
	c0.21,0.27-0.02,0.66-0.36,0.61c-1.73-0.27-3.45-0.42-5.17-0.45c-9.17-0.15-20.28-0.03-33.33,0.37c-0.09,0-0.14-0.09-0.09-0.16
	c2.36-3.57,3.54-7.11,3.54-10.63c-0.01-34.57-0.01-69.64,0-105.21c0-4.26-1.07-8.56-4.67-11.16c-0.81-0.59-0.72-0.84,0.28-0.77
	c1.28,0.09,2.57,0.15,3.88,0.18c12.35,0.22,24.34,0.17,35.97-0.16C215.34,541.95,215.44,542.22,214.69,542.78z"/>
</svg>
